<svg width="26.000000" height="26.000000" viewBox="0 0 26 26" fill="none" xmlns="http://www.w3.org/2000/svg" xmlns:xlink="http://www.w3.org/1999/xlink">
	<desc>
			Created with Pixso.
	</desc>
	<defs/>
	<circle id="Ellipse 137" cx="13.000000" cy="13.000000" r="13.000000" fill="#FFFFFF" fill-opacity="1.000000"/>
	<path id="Vector" d="M20.739 12.9801C20.7068 10.7158 19.9282 8.77539 18.3973 7.16797C18.3534 7.12219 18.3124 7.07019 18.2685 7.02136C17.7357 6.41931 16.8429 6.30933 16.2019 6.77075C15.5462 7.24133 15.3208 8.11841 15.6896 8.84863C15.7774 9.02588 15.9091 9.18787 16.0467 9.32544C17.3932 10.6882 17.9201 12.3231 17.4459 14.233C16.9922 16.0573 15.8389 17.2521 14.1236 17.796C12.458 18.3217 10.9036 17.9916 9.55125 16.8549C8.39208 15.8831 7.79786 14.5813 7.77737 13.026C7.7598 11.7975 8.16962 10.7128 8.93362 9.77759C9.03021 9.65845 9.16193 9.56982 9.26439 9.45679C9.69469 8.99231 9.81178 8.43921 9.62737 7.83411C9.4371 7.22302 9.00972 6.85632 8.40672 6.73413C7.93544 6.6394 7.51099 6.7677 7.13046 7.07324C6.46305 7.60498 6.00933 8.31396 5.60831 9.06262C4.91163 10.3644 4.59842 11.77 4.64818 13.2582C4.70673 15.0734 5.28339 16.6929 6.36938 18.1108C7.39683 19.4492 8.69066 20.3995 10.2626 20.8794C12.9175 21.6921 15.394 21.2644 17.6186 19.5226C19.0647 18.392 20.0131 16.8884 20.4815 15.0673C20.66 14.3857 20.7361 13.6891 20.739 12.9801Z" fill="#FE724C" fill-opacity="1.000000" fill-rule="nonzero"/>
	<path id="Vector" d="M20.739 12.9801C20.7068 10.7158 19.9282 8.77539 18.3973 7.16797C18.3534 7.12219 18.3124 7.07019 18.2685 7.02136C17.7357 6.41931 16.8429 6.30933 16.2019 6.77075C15.5462 7.24133 15.3208 8.11841 15.6896 8.84863C15.7774 9.02588 15.9091 9.18787 16.0467 9.32544C17.3932 10.6882 17.9201 12.3231 17.4459 14.233C16.9922 16.0573 15.8389 17.2521 14.1236 17.796C12.458 18.3217 10.9036 17.9916 9.55125 16.8549C8.39208 15.8831 7.79786 14.5813 7.77737 13.026C7.7598 11.7975 8.16962 10.7128 8.93362 9.77759C9.03021 9.65845 9.16193 9.56982 9.26439 9.45679C9.69469 8.99231 9.81178 8.43921 9.62737 7.83411C9.4371 7.22302 9.00972 6.85632 8.40672 6.73413C7.93544 6.6394 7.51099 6.7677 7.13046 7.07324C6.46305 7.60498 6.00933 8.31396 5.60831 9.06262C4.91163 10.3644 4.59842 11.77 4.64818 13.2582C4.70673 15.0734 5.28339 16.6929 6.36938 18.1108C7.39683 19.4492 8.69066 20.3995 10.2626 20.8794C12.9175 21.6921 15.394 21.2644 17.6186 19.5226C19.0647 18.392 20.0131 16.8884 20.4815 15.0673C20.66 14.3857 20.7361 13.6891 20.739 12.9801ZM19.2989 9.91602Q18.7737 8.72327 17.8182 7.71997L17.818 7.71973Q17.7761 7.6759 17.7119 7.60046Q17.6841 7.56787 17.6733 7.55591Q17.5559 7.42322 17.4087 7.35547Q17.3017 7.30627 17.179 7.29138Q17.0262 7.27271 16.8899 7.31177Q16.7736 7.34497 16.6692 7.42004Q16.535 7.51636 16.4504 7.64526Q16.3736 7.76221 16.3377 7.90613Q16.3012 8.05237 16.3156 8.1936Q16.3308 8.34375 16.4037 8.48804Q16.4657 8.61304 16.6123 8.75952Q17.7834 9.94495 18.1965 11.3481Q18.2646 11.5793 18.3117 11.8147Q18.5611 13.0614 18.2224 14.4258Q17.8772 15.8137 17.0531 16.8027Q16.9505 16.9259 16.8406 17.0428Q16.697 17.1954 16.5424 17.3358Q15.6416 18.1539 14.3654 18.5586Q13.169 18.9362 12.0297 18.8076Q11.7923 18.7809 11.5574 18.7322Q11.4505 18.71 11.3447 18.6833Q10.1154 18.3741 9.0365 17.4673Q8.28079 16.8337 7.79794 16.0353Q7.63981 15.7737 7.51094 15.4945Q7.49713 15.4646 7.48367 15.4346Q6.99462 14.3411 6.97744 13.0365Q6.96634 12.2603 7.15179 11.5341Q7.21828 11.2738 7.31004 11.0199Q7.64672 10.0883 8.3141 9.27148Q8.4073 9.15649 8.58483 8.99976Q8.65543 8.93738 8.67157 8.91956Q8.85106 8.72583 8.89519 8.52588Q8.93997 8.32288 8.86212 8.06738Q8.78833 7.83044 8.63995 7.69836Q8.49338 7.56787 8.24779 7.51819Q8.09384 7.48718 7.95677 7.52222Q7.95168 7.52356 7.94662 7.5249Q7.79314 7.56714 7.63136 7.69702Q7.25137 7.99976 6.91494 8.45923Q6.63229 8.84521 6.31351 9.44031Q5.96132 10.0984 5.75163 10.7991Q5.40512 11.957 5.44774 13.2314Q5.49059 14.5602 5.93989 15.7333Q6.32381 16.7356 7.00449 17.6244Q8.03181 18.9626 9.38841 19.6641Q9.91724 19.9375 10.4961 20.1141Q12.3405 20.6788 14.0161 20.359Q15.6512 20.047 17.1255 18.8927Q17.8424 18.3322 18.3823 17.6346Q19.3001 16.4491 19.7067 14.8679Q19.9348 13.9972 19.939 12.9768Q19.9154 11.3159 19.2989 9.91602Z" fill="#FFFFFF" fill-opacity="1.000000" fill-rule="evenodd"/>
	<path id="Vector" d="M14.2699 8.00537C14.2699 6.88086 14.2728 6.48804 14.2699 5.36353C14.267 4.7218 13.9801 4.23596 13.4474 3.93042C12.9263 3.63086 12.3819 3.64307 11.8725 3.96399C11.3837 4.26953 11.1115 4.73706 11.1115 5.33911C11.1056 7.60034 11.1056 8.39502 11.1115 10.6564C11.1144 11.4967 11.7262 12.1934 12.5224 12.2728C13.3478 12.3584 14.0855 11.8022 14.2494 10.965C14.2728 10.8458 14.2758 10.7235 14.2758 10.6013C14.2699 9.49207 14.2699 9.11462 14.2699 8.00537Z" fill="#FE724C" fill-opacity="1.000000" fill-rule="nonzero"/>
	<path id="Vector" d="M14.2699 8.00537C14.2699 7.59863 14.2703 7.2876 14.2707 7.00305C14.2713 6.50098 14.2718 6.0813 14.2699 5.36353C14.267 4.7218 13.9801 4.23596 13.4474 3.93042C12.9263 3.63086 12.3819 3.64307 11.8725 3.96399C11.3837 4.26953 11.1115 4.73706 11.1115 5.33911C11.1056 7.60034 11.1056 8.39502 11.1115 10.6564C11.1144 11.4967 11.7262 12.1934 12.5224 12.2728C13.3478 12.3584 14.0855 11.8022 14.2494 10.965C14.2728 10.8458 14.2758 10.7235 14.2758 10.6013C14.2699 9.49207 14.2699 9.11462 14.2699 8.00537L14.2699 8.00537ZM13.471 6.68372L13.4699 5.36584Q13.4685 5.10071 13.3647 4.92126Q13.2644 4.74768 13.0493 4.62427Q12.8513 4.5105 12.6729 4.5144Q12.4936 4.51819 12.299 4.64087Q12.0997 4.76538 12.0065 4.93164Q11.9115 5.10107 11.9115 5.33911L11.9071 7.99902L11.9115 10.655Q11.9121 10.8436 11.9811 11.0027Q12.0324 11.1212 12.1217 11.2233Q12.2383 11.3567 12.3851 11.4209Q12.4863 11.4652 12.6018 11.4768Q12.7734 11.4946 12.924 11.4464Q13.0445 11.4078 13.1514 11.3269Q13.2432 11.2574 13.3098 11.1692Q13.4239 11.0179 13.4643 10.8113Q13.4758 10.7531 13.4758 10.6013L13.4707 9.30652L13.4699 8.00574L13.471 6.68372Z" fill="#FFFFFF" fill-opacity="1.000000" fill-rule="evenodd"/>
</svg>
